# xmcd
#
# Track frame offsets:
#	150
#	21293
#	40033
#	56840
#	74520
#	98938
#	115143
#	134745
#	151670
#	172295
#
# Disc length: 2867 seconds
#
# Revision: 0
# Processed by: cddbd v1.5.2PL0 Copyright (c) Steve Scherf et al.
# Submitted via: audiograbber 1.83.01
#
DISCID=8f0b310a
DTITLE=The Promise - The Promise
DYEAR=1995
DGENRE=Rock
TTITLE0=end of the game
TTITLE1=you are the one
TTITLE2=playing dirty
TTITLE3=holding out for a miracle
TTITLE4=sleeping alone
TTITLE5=don't keep me waiting
TTITLE6=holding on
TTITLE7=restless
TTITLE8=when it rains
TTITLE9=silver lights
EXTD=
EXTT0=
EXTT1=
EXTT2=
EXTT3=
EXTT4=
EXTT5=
EXTT6=
EXTT7=
EXTT8=
EXTT9=
PLAYORDER=
